<svg xmlns="http://www.w3.org/2000/svg" viewBox="0 0 2891.34 1247.24" width="2891.34" height="1247.24"><defs><style>.cls-1{stroke:red;stroke-miterlimit:10;stroke-width:3px}.cls-1,.cls-2,.cls-3,.cls-4,.cls-5,.cls-6,.cls-7,.cls-8,.cls-9{fill:none}.cls-11{fill:#f39d73}.cls-12{fill:#fff}.cls-16{fill:#a0a0a0}.cls-17{fill:#dbab7d}.cls-18{fill:#e21e26}.cls-19{fill:#e3000f}.cls-20{fill:#171314}.cls-21{fill:#0c0708}.cls-22{fill:#19285f}.cls-26{fill:#9c2b42}.cls-29{fill:#4f051f}.cls-32,.cls-34{isolation:isolate;opacity:.2}.cls-32{fill:#1f1011}.cls-2{stroke:#ff616b}.cls-2,.cls-3,.cls-4,.cls-5,.cls-6,.cls-7,.cls-8,.cls-9{stroke-linecap:round;stroke-linejoin:round;stroke-width:4px}.cls-3{stroke:#fff}.cls-4{stroke:#1f1011}.cls-5{stroke:#191919}.cls-6{stroke:#000}.cls-7{stroke:#0c0708}.cls-8{stroke:#9c2b42}.cls-9{stroke:#e3000f}</style></defs><g id="background"><path style="opacity:.48;fill:#19285f" d="M-57-57h3005v1361H-57z"/><path class="cls-12" d="M2084.54 399.97h345.06c24.75 0 44.99 20.09 44.99 44.99v345.06c0 24.75-20.09 44.99-44.99 44.99h-345.06c-24.75 0-44.99-20.09-44.99-44.99V444.96c0-24.9 20.09-44.99 44.99-44.99Z"/></g><g id="icone"><path class="cls-1" d="m2260.56 488.34-107.18 50.24v71.56c-.04 67.6 45.73 130.81 107.18 146.16 61.45-15.35 107.14-78.56 107.18-146.16v-71.56l-107.18-50.24ZM2260.56 488.34v73.68M2260.56 602.22v154.07M2153.34 582.12h87.09M2367.71 582.12h-87.09"/></g><g id="Icone"><path d="M2039.73 858.47c9.88 0 17.9-8.01 17.9-17.9s-8.02-17.9-17.9-17.9-17.9 8.01-17.9 17.9 8.01 17.9 17.9 17.9Z" style="fill:#ff616b"/><path class="cls-2" d="M1208.32 456.57v7.48M1208.32 485.28v7.48M1226.42 474.67h-7.48M1197.71 474.67h-7.48M1195.54 461.88l5.26 5.27M1215.84 482.19l5.27 5.26M1221.11 461.88l-5.27 5.27M1200.8 482.19l-5.26 5.26"/><path class="cls-16" d="M1167.13 691.3c10.97-7.91 13.46-23.22 5.55-34.19-7.92-10.98-23.23-13.47-34.2-5.55-10.98 7.91-13.46 23.22-5.55 34.2 7.91 10.97 23.22 13.46 34.2 5.54Z"/><path class="cls-22" d="M938.57 742.29a63.162 63.162 0 0 1-44.54-18.48 63.078 63.078 0 0 1-18.48-44.54V152.16c0-16.73 6.64-32.76 18.46-44.61A63.115 63.115 0 0 1 938.57 89h451.15c16.71.05 32.74 6.71 44.56 18.55a63.22 63.22 0 0 1 18.44 44.61v527.1a63.143 63.143 0 0 1-18.46 44.54c-11.82 11.8-27.86 18.46-44.54 18.48H938.57Z"/><path class="cls-12" d="M1057.56 578.85c6.8-28.79-11.03-57.63-39.82-64.43-28.77-6.78-57.6 11.05-64.4 39.82-6.8 28.79 11.03 57.6 39.82 64.4 28.77 6.8 57.6-11.03 64.4-39.8Z"/><path class="cls-6" d="M1003.77 562.51h-22.2M1003.77 573.17h-22.2M1022.06 582.52c-2.9 2.87-6.59 4.84-10.63 5.63-4 .77-8.18.35-11.96-1.22a20.787 20.787 0 0 1-9.28-7.64c-2.27-3.41-3.48-7.43-3.48-11.52s1.22-8.11 3.48-11.52a20.82 20.82 0 0 1 9.28-7.62c3.79-1.59 7.97-2.01 11.96-1.24 4.04.79 7.73 2.76 10.63 5.66"/><path class="cls-12" d="M1202 604.39c20.89-20.89 20.89-54.8 0-75.69s-54.82-20.91-75.74 0c-20.89 20.89-20.89 54.8 0 75.69 20.91 20.91 54.82 20.91 75.74 0Z"/><path class="cls-6" d="m1145.57 546.3 18.18 18.18 18.18-18.18M1163.75 564.48v24.79M1153.37 568.5h20.77"/><path class="cls-26" d="M1375.07 578.85c6.8-28.79-11.03-57.63-39.82-64.43-28.77-6.78-57.6 11.05-64.4 39.82-6.8 28.79 11.03 57.6 39.82 64.4 28.77 6.8 57.6-11.03 64.4-39.8Z"/><path class="cls-6" d="M1318.28 589.27v-42.86h13.65c1.43 0 2.87.28 4.21.84 1.33.56 2.57 1.38 3.6 2.38 1.03 1.03 1.85 2.24 2.38 3.58.56 1.36.84 2.78.84 4.23s-.28 2.9-.84 4.23c-.54 1.33-1.36 2.57-2.38 3.58a11.327 11.327 0 0 1-3.6 2.41c-1.33.56-2.78.84-4.21.84h-21.43M1310.5 579.41h16.87"/><path class="cls-12" d="M959.6 391.41c-2.06 0-4.07-.84-5.54-2.31s-2.29-3.46-2.29-5.54.82-4.04 2.29-5.51 3.48-2.31 5.54-2.31h409.06c2.08 0 4.07.84 5.54 2.31s2.29 3.46 2.29 5.51-.82 4.07-2.29 5.54-3.46 2.31-5.54 2.31H959.6Z"/><path d="M1155.17 432.45c19.75 0 35.75-16.03 35.75-35.75s-16.01-35.75-35.75-35.75-35.73 16.01-35.73 35.75 16.01 35.75 35.73 35.75Z" style="fill:#363945;opacity:.2;isolation:isolate"/><path class="cls-19" d="M1155.17 419.71c19.75 0 35.75-16.01 35.75-35.75s-16.01-35.75-35.75-35.75-35.73 16.01-35.73 35.75 16.01 35.75 35.73 35.75Z"/><path class="cls-3" d="M1106.1 707.96h116.09"/><path class="cls-12" d="M960.14 229.72c-2.08 0-4.07-.84-5.56-2.29-1.45-1.47-2.27-3.46-2.27-5.54s.82-4.07 2.27-5.54a7.924 7.924 0 0 1 5.56-2.29h409.06c2.06 0 4.04.82 5.51 2.29s2.31 3.46 2.31 5.54-.84 4.07-2.31 5.54c-1.47 1.45-3.46 2.29-5.51 2.29H960.14Z"/><path class="cls-19" d="M1270.89 257.39c19.72 0 35.75-16.03 35.75-35.75s-16.03-35.75-35.75-35.75-35.75 16.01-35.75 35.75 16.01 35.75 35.75 35.75Z"/><path class="cls-26" d="M1852.23 735.97c6.35 0 11.5-5.15 11.5-11.5s-5.15-11.5-11.5-11.5-11.5 5.15-11.5 11.5 5.15 11.5 11.5 11.5Z"/><path class="cls-19" d="m2206.44 1083.96-130.69 55.11q-.11 0-.11-.11a42.28 42.28 0 0 1-2.6-15.48l.43-1.41 130.37-54.79c.11 0 .32.98.32.98 1.95 9.74 2.38 14.94 2.28 15.7q.1 0 0 0Z"/><path class="cls-29" d="M2204.16 1068.15c-3.14-17-7.47-34-12.23-50.67-.87-2.82-1.84-6.07-2.82-9.1l-.11-.11-52.08.76-42.33 16.13c-.11 0-.11.11-.11.11 3.57 7.04 6.61 14.84 8.55 22.42 1.63 6.71 1.84 12.34.22 16.99-8.44 23.72-29.23 36.82-30.21 58.69 0 .11 0 0 0 0l131.12-55.22Z"/><path class="cls-19" d="M1951.45 1139.18H1809.5q-.11 0-.11-.11c.22-5.2 1.63-10.5 3.9-15.27 0 0 0-.11.11-.11l74.28-6.17 67.78 6.17c.1 0 .1.11.1.11-2.16 9.64-3.79 14.73-4.11 15.38q.11 0 0 0Z"/><path class="cls-29" d="M1871.66 1048.23q-.11 0 0 0c0 10.39-.97 19.05-3.35 25.55-.98 2.82-2.49 5.41-4.44 7.69-16.89 18.62-41.26 22.41-50.57 42.22h142.27c3.58-16.56 6.61-32.91 8.45-49.59.22-2.05.54-4.54.76-6.92 0 0 0-.11-.11-.11l-44.28-17.54-48.73-1.3Z"/><path class="cls-11" d="M1838.84 324.09c-1.95 4.33 4.88 10.07 5.53 10.61v.11c-3.9 12.34-6.07 27.28-.65 35.83 6.49 10.72 20.03 13.76 35.73 11.7q.11 0 .11.11l-1.2 7.03 59.34 10.62q.11 0 .11-.11c.75-3.14 10.17-8.56 10.72-12.02.54-2.82.86-5.85 1.4-8.88 3.04-17 2.71-36.16 4.88-48.94 4-24.15 7.79-42.01-20.14-60.09-16.57-10.72-36.71-12.35-55.11-7.58 0 0-24.91 4.87-25.99 34.75 0 .11-5.09 20.9-5.52 22.2 0 0 0 .11-.11.11-.54.22-7.69 1.08-9.1 4.55Z"/><path d="M1878.58 389.48c1.52-.32 13.86-3.24 22.95-14.18.11-.11 0-.22-.1-.22-9.31 4.88-20.79 7.04-21.66 7.26 0 0-.11 0-.11.11l-1.19 6.93c-.11 0 0 .1.11.1Z" style="opacity:.15;isolation:isolate"/><path class="cls-19" d="M2004.94 448.28c-11.91-29.13-32.92-47.21-57.39-52.19-.11 0-.11-.11-.11-.11l1.19-7.9q0-.11-.1-.11l-69.73.22c-.11 0-.22.1-.22.21l-1.3 6.82q0 .11-.11.11c-1.3.11-15.91.98-35.08 5.31-29.12 6.49-68.97 59.33-100.37 97.01h-.11l-47.64-21.55h-.11l-23.82 30.32-9.52 43.64v.1c24.36 16.57 55.54 33.46 82.18 32.92 44.82-1.08 84.67-45.58 87.37-48.62.11-.1.22 0 .22.11l10.18 55.01s0 .32.11.32l123.54 1.73 27.39 23.61h.11c.97 0 18.08-.54 27.5-23.61 6.17-16.67-1.95-113.14-14.18-143.35Z"/><path class="cls-34" d="m1862.56 499.6-3.69 89.98q0 .1-.1.1h-18.3s-.11 0-.11-.1l-10.18-55.22v-.11l32.16-34.87c.11 0 .22.11.22.22Z"/><path d="M1853.68 297.34c13.21 16.14 35.4 31.94 36.7 32.92h.11c1.3-1.08 25.34-20.36 37.9-8.56 16.67 14.95-6.82 37.25-14.08 41.04-.11 0-.11.11 0 .22 14.94 15.48 34.22 16.13 35.62 16.13 0 0 .11 0 .11-.11 3.03-16.02 6.93-36.81 8.77-47.75 4.01-24.14 5.42-50.02-22.41-68.1-16.57-10.72-39.74-11.15-58.04-6.39h-.1c-.76-.97-12.56-15.48-29.24-6.5-14.51 9.53-8.99 30.43 4.66 47.1ZM1860.4 326.9c1.79 0 3.25-1.45 3.25-3.25s-1.46-3.24-3.25-3.24-3.25 1.45-3.25 3.24 1.45 3.25 3.25 3.25Z"/><path class="cls-11" d="M1574.65 436.69c.11 0 .22-.11.11-.21-5.95-3.47-7.58-16.03-.11-13.76 25.56 7.69 55.12 23.18 77.75 34.44l.1.1-8.98 36.82-19.71 25.88h-.11c-12.88.43-33.02-4.66-47.53-15.81h-.11c-21.55-1.74-43.52-4.66-44.5-9.96-1.19-6.39 24.58-7.04 32.37-7.15.11 0 .11-.22 0-.22-8.12-2.92-53.48-7.03-39.95-25.12v-.1c-5.95-9.1 2.38-13.76 5.09-13.97.11 0 .11-.11.11-.11-.54-1.08-4.01-7.8.76-12.13 3.24-2.81 37.46.22 44.71 1.3Z"/><path d="m1652.4 457.26-28.59 62.7v.1c12.24 10.94 22.95 20.79 36.6 29.89h.11l33.34-73.85v-.1l-41.25-18.84q-.21 0-.21.1Z" style="fill:#ff404d"/><path class="cls-34" d="m1964.01 589.58 13.97-62.91c0-.11.21-.11.21 0l2.28 80.55c0 .11-.11.11-.22.11l-16.24-17.75Z"/><path class="cls-22" d="M2176.34 970.05c-5.2-14.61-10.62-27.82-16.25-39.95-23.17-50.35-47.64-80.23-62.58-101.45-29.67-41.8-42.33-106.22-67.89-158.08-25.01-51.22-64.42-80.13-65.61-80.99h-35.73l-87.7.1q-.11 0-.11.11c-.33 3.79-11.7 129.82 4.65 283.9 3.58 33.67 12.02 73.08 18.41 108.92 4.44 24.69 7.69 47.43 8.01 65.51 0 0 0 .11.11.11l56.74 11.58 36.27 7.15q.11 0 .11-.11a905.8 905.8 0 0 0 3.68-44.5c.54-14.08.65-27.29.43-39.74-1.41-57.06-12.67-95.17-18.51-121.16-5.53-24.79-2.28-53.27 1.95-82.72h.21c16.03 33.24 33.78 68 52.52 101.89 15.05 27.39 35.83 57.71 54.78 86.18 13.97 21.23 26.42 41.04 34.65 58.26l.11.1 94.41-16.89c.11 0 .11-.1.11-.1-3.57-11.37-7.69-23.82-12.77-38.12Z"/><path class="cls-34" d="M1980.79 835.25c.11.11.22.11.22-.11l-7.15-76.55c-1.41-15.26-4.44-30.53-9.09-45.15l-3.9-12.34c0-.11-.22-.11-.22 0-.11 25.34-4.54 51.65-8.33 77.31v.11c9.09 18.62 18.62 37.67 28.47 56.73Z"/><path class="cls-6" d="M1860.72 342.93c-1.09 3.03-6.07 5.41-9.1 4.33M1901.43 375.08c-6.61 3.36-18.52 6.72-21.87 7.37M1914.42 337.95l-9.85 7.9M1830.08 534.46l32.27-34.97M1529.18 447.74s35.08 2.92 57.82 7.9M1574.65 436.48l17.33 2.92M1524.09 461.92s37.35 7.47 56.74 11.15M1952.53 778.84c4.33-29.34 7.69-48.62 8.34-77.63"/><path class="cls-9" d="m2127.18 1052.13-23.17-.11M2125.01 1070.21l-22.41-4.01M1888.76 1082.66l-20.47-8.88M1879.56 1098.47l-19.49-13.1"/><path class="cls-6" d="M1869.6 589.79s.55 161.55 14.62 263c14.08 101.45 28.69 176.49 25.88 202.91M1964.01 589.58l13.97-62.91"/><path class="cls-17" d="m611.88 1107.08-33.18-35.83v-.11c-2.13-15.74-3.51-32.11-4.25-49.98v-.85l97.4-1.91 1.91 2.76c-.42 6.7-.95 13.72-1.17 20.2l-.21 4.36-30.41 61.36h-30.09ZM438.87 1115.07l-36.58-43.18v-.1c-2.24-17.23-3.3-35.52-3.41-51.91l101.24.64c-1.92 11.07-3.19 19.47-3.83 25.75l-26.16 68.69-31.26.11ZM763.3 443.86l-64.23-17.65-1.27-.53.85-2.77c11.59-39.02 23.6-79.43 26.58-86.56 5-11.8 21.16-44.34 29.35-44.34.64 0 1.28.21 1.81.64 5.1 4.04 3.08 13.93-8.3 42.32 1.17-.42 4.15-1.38 7.34-1.38 3.72 0 8.29 1.38 9.46 7.87 1.28-.53 2.66-.75 4.04-.75 5.64 0 9.68 5.21 9.79 12.55 2.66.32 4.89 1.6 6.8 4.04 4.15 5.64 4.36 16.06 2.77 23.82-1.17 5.96-6.49 6.59-8.4 6.59h-.11c-.11 29.88-14.35 33.82-14.89 33.93.43 7.65.64 15.1.64 22.11l-2.23.11Z"/><path class="cls-29" d="M398.78 1021.27v.21l101.23-.32c4.04-22.76 10.21-50.72 16.69-79.75 6.07-27.22 12.98-58.38 17.23-82.94 2.55-15 5.53-40.73 8.4-70.93 1.92 4.36 3.94 8.61 5.85 12.87 16.91 36.79 32.86 71.45 28.82 124.09-1.6 21.06-4.15 56.36-2.66 96.45 0 .21.11.32.32.32h99.1c.22-2.55.22-5.21.32-7.87.22-3.72.43-7.45.64-11.27v-.75c2.13-38.7 4.79-86.77 4.79-126.96 0-124.84-70.61-307.1-73.7-314.76v-.21h-83.9q-.1 0-.21.1h-57.21l-.1.11c-1.28 2.23-12.76 22.12-22.44 54.02-12.97 42.53-17.33 88.26-12.65 132.18 8.61 80.39-1.6 115.58-12.45 152.91l-.21.53c-3.83 12.97-7.65 26.48-10.74 42.21-5 26.7-7.44 53.6-7.12 79.76Z"/><path class="cls-32" d="M570.09 855.28c-5.64-19.78-13.93-37.75-22.02-55.09l-4.89-10.74c-5.63-17.01-.85-6.59-.85-6.59 1.49-24.46 3.62-29.03 3.62-29.03s1.91-38.92 2.87-38.92c0 0-12.44-25.2 0 0 0 0 8.19-1.27 9.99 17.97l11.7 122.4h-.42Z"/><path class="cls-21" d="M593.9 1141.43c-1.59-5.21-3.5-11.27-4.99-16.8 0-.22.1-.43.32-.43l136.43.53.1.11c.11.11.21.21.21.32 2.45 4.78 3.83 10.63 3.51 16.16l-135.58.11Z"/><path class="cls-26" d="m723.1 1125.27-133.66-.1c-.21 0-.32-.11-.32-.21-.74-3.09-8.51-37.12-10.74-54.13v-.21h.21c14.25.32 26.69 9.04 31.8 22.33h29.35l-8.72-27.86c-1.28-3.83-.85-7.98 1.06-11.7 1.91-3.61 5.1-6.27 9.04-7.44 1.59-.43 3.08-.64 4.57-.64h26.69v.21c-.21 3.51-.32 6.6-.42 9.68v.96c-.86 27.32 20.52 41.57 37.75 53.06.85.64 4.04 2.66 4.67 3.19 4.58 3.19 8.72 7.55 11.49 12.86.21 0 .1 0 0 0h-2.77Z"/><path class="cls-21" d="M417.6 1141.44c-1.7-5.21-3.51-10.95-5-16.59 0-.11 0-5.53.11-5.53l135.47 4.47 1.49 1.48c2.55 4.9 3.72 10.43 3.4 16.06v.21l-135.47-.1Z"/><path class="cls-26" d="m549.46 1125.27-136.43-.1c-.22 0-.43-.21-.43-.43-.85-3.82-8.4-36.68-10.63-53.27v-.21h.21c13.61.74 25.63 9.46 30.62 22.22h29.35l-8.72-27.86c-1.27-3.83-.85-7.98 1.07-11.7 1.91-3.61 5.1-6.27 9.04-7.44 1.59-.43 3.08-.64 4.57-.64h28.18v.21c-.43 3.09-.64 6.28-.75 10.11-.85 27.32 20.53 41.57 37.75 53.06.85.64 12.98 7.76 16.38 16.05h-.21Z"/><path class="cls-29" d="M399.1 598.79c9.57 9.15 23.71 14.57 42.21 16.17-5.53 18.6-10.42 41.15-12.65 67.09v.64h.32c2.97 0 73.05-.53 123.03-43.06 42.85 35.51 92.09 36.47 92.62 36.47h.32l-.11-.32c-18.61-64.76-31.9-114.84-32.01-115.48l4.26-34.24c15.41 14.67 47 39.13 85.17 39.13h1.81c18.71-.43 34.03-10.63 44.45-29.56 11.48-20.84 17.22-51.79 17.01-91.88v-.21l-67.73-18.18-.11.21c-6.7 22.76-11.17 40.62-11.8 43.17-3.62-3.19-7.34-6.48-11.17-9.89-15.31-13.71-30.84-27.33-51.25-42.96-8.94-6.91-13.72-10.42-21.7-13.61l-3.82-1.49c-.11 0-.32 0-.43.22l-52.85 105.06-60.29-106.77h-.11c-17.44 3.94-29.77 10.96-34.34 14.47-.11.1-.32.32-.43.42-.11 0-.21 0-.32.11-18.5 13.82-28.18 29.88-32.33 38.07l-.85 1.7c-35.09 69.97-41.15 121.33-16.9 144.72Z"/><path class="cls-32" d="m434.19 643.45.1-.32 7.02-28.17 8.93 1.06 46.79-5c-.21.32-1.27 14.04-62.42 32.33l-.42.1Z"/><path class="cls-26" d="m544.56 507.02-60.71-107.61.42-.11c5.32-1.27 10.85-2.23 16.7-2.65 9.99-.75 21.58-1.17 34.34-1.17 18.4 0 35.31.85 41.69 1.17h.53c7.23.1 13.93 1.49 20.52 4.25l.43.21-53.92 105.91Z"/><path class="cls-32" d="m641.22 545.3-.85-.53c-7.97-5.31-15.73-11.48-23.07-18.39l-.21-.22 3.29-34.13.43-.11 20.41 53.38Z"/><path class="cls-16" d="m534.46 416.85-9.57 55.19 19.67 34.98 16.06-31.68-10.1-58.49 14.57-21.16h-45.2l14.57 21.16Z"/><path class="cls-17" d="M500.12 389.73v-.21c-.11-3.19-.32-6.8-.54-10.74l-.31-6.17c-1.39-26.37 3.29-52.84 3.5-66.88.22-12.23 5.32-23.82 14.36-32.54 9.25-8.93 21.59-13.82 34.88-13.82 25.84 0 39.45-.54 50.4 15.95 6.49 9.78 7.13 26.9 7.66 39.45.21 5.42.53 11.69 1.27 16.16 2.45 13.51 3.62 27.65-4.14 38.81-6.49 9.25-17.02 11.17-24.78 11.17-2.02 0-3.93-.21-5.95-.43l.53 9.25h-76.88Z"/><path d="m577 390.05-.43-.32c-9.99-4.67-19.78-9.99-29.03-15.95l.21-.42c9.15 3.3 17.98 6.06 27.65 7.02l1.07.1.53 9.57Z" style="opacity:.2;isolation:isolate;fill:#191919"/><path class="cls-26" d="m542.54 398.45-18.39 19.25c-.21.21-.75.32-1.07 0l-22.33-19.46a.584.584 0 0 1-.32-.53l-.1-1.6c-.11-1.91-.21-4.14-.32-6.59v-.21h76.24c.32 0 .75.32.75.74l.42 6.92c0 .21-.1.42-.21.53l-16.06 19.56c-.21.32-.85.32-1.17 0l-16.27-18.61a.852.852 0 0 0-1.17 0Z"/><path d="M501.6 373.47h-2.33l-.22-4.15c-1.38-26.69-3.08-59.76-2.87-73.16.21-12.12 5.32-23.71 14.36-32.54 9.25-8.93 21.58-13.82 34.88-13.82 25.84 0 46.04 9.03 56.99 25.52.11.1.43.63.64.95 0 .22-5.53 15.53-37.22 15.53-4.25 0-9.04-.21-8.82.01-2.02 10.2-2.88 22.11-7.87 30.93l-.11.22-.21-.11s-.11 0-.32-.11c-4.04-1.91-12.12-5.1-19.78-5.1-8.19 0-13.82 3.51-16.8 10.42-3.51 8.4 2.98 17.23 9.04 23.07 5.42 5.21 11.59 9.04 13.61 10.32l.64.42.21.11-.21.21c-11.17 11.17-33.61 11.28-33.61 11.28Z" style="fill:#191919"/><path class="cls-20" d="M598.05 317.96c0-1.92 1.6-3.51 3.51-3.51 1.91 0 3.51 1.59 3.51 3.51s-1.6 3.51-3.51 3.51c-1.91 0-3.51-1.6-3.51-3.51ZM580.51 319.77c0-1.94-1.58-3.51-3.51-3.51-1.94 0-3.51 1.57-3.51 3.51s1.57 3.5 3.51 3.5c1.93 0 3.51-1.57 3.51-3.5Z"/><path class="cls-4" d="m552.01 639.41 2.12-114.84 49.98-47.85-9.57-30.84 23.4 4.25-3.83-41.04M552.01 549.66l-71.25-67.63 11.7-29.77-24.46 1.06.64-48.7M554.56 524.99l-10-18.5"/><path class="cls-5" d="M559.45 377.19c5.85 1.49 11.91 1.7 17.02 3.29M541.37 339.54l-11.69-5.31M580.51 342.41c2.02 3.83 6.48 5.96 10.74 5M591.35 332.95c3.62-1.49 2.55-4.15 1.17-7.76"/><path class="cls-4" d="m619.21 504.37-2.12 21.79M688.97 481.72l-3.08-12.87M542.33 787.54c2.34-23.82 4.36-49.45 6.49-75.92M428.87 682.59s72.1.42 123.14-43.18c43.6 36.16 92.62 36.58 92.62 36.58"/><path class="cls-4" d="M464.81 681.63c-2.23 22.97 3.19 121.54-5.31 173.65-8.51 52.1-27.65 118.03-32.12 165.35"/><path class="cls-7" d="m494.59 1097.72 13.03-8.89M672.17 1097.72l11.59-8.54"/><path class="cls-6" d="m500.65 397.92 22.97 19.99 19.67-20.41 17.33 19.99 16.7-20.31"/><path class="cls-5" d="M772.12 377.82c.96 4.15 3.62 7.66 7.45 9.58M758.3 366.34c.32 3.93 1.81 10.1 7.44 11.48 10.32 2.56 12.76-13.82 12.76-23.39M762.34 354.43c.96-4.25 1.81-8.51 2.34-12.76"/><path class="cls-5" d="M750.86 412.92c3.19-14.89-8.51-34.03-8.51-34.03s25.52-17.02 20.2-23.4c-5.31-6.38-35.51 5.64-46.78 13.83"/><path class="cls-17" d="m578.38 609.32-1.06-1.06c-1.07.1-2.02.1-3.09.1-11.8 0-23.39-3.29-33.49-9.57-.96.32-10.11 3.51-23.82 7.23l-5.11-67.52h.22c18.07.96 44.13 2.98 65.39 7.97 39.45 9.36 64.76 32.76 72.1 46.15 4.68 8.72 3.19 13.62 1.81 15.85-.64 1.06-1.28 1.81-1.7 2.02.74 3.61.21 6.59-1.49 8.72-2.34 2.98-6.17 3.19-6.81 3.19h-.11c-1.59 3.83-4.36 5.85-8.29 5.85-7.76 0-17.76-7.77-19.67-9.36 1.7 3.3 5.31 11.48 3.4 14.89-.53.95-1.59 1.49-2.98 1.49-3.29 0-12.23-4.47-35.3-25.95Z"/><path class="cls-5" d="M594.54 584.12s29.78 22.33 46.79 38.28M604.11 572.42c13.83 8.51 37.22 27.65 45.73 38.28M586.67 595.71l26.59 23.18"/><path d="M494.8 584.65c0-5.1-4.15-9.25-9.25-9.25-5.12 0-9.25 4.15-9.25 9.25s4.13 9.25 9.25 9.25c5.1 0 9.25-4.14 9.25-9.25Z" style="fill:#ff8b93"/><path class="cls-4" d="m469.07 537.33 9.88-25.41M516.92 605.92c-20.21 5.31-49.87 11.27-76.03 8.93M448.86 537.33c23.4 0 38.28 0 62.74 1.06"/><path class="cls-5" d="M741.18 356.98c.96-4.25 4.36-17.44 6.91-22.01"/></g><g id="commun_illustration_for_session" data-name="commun illustration for session"><path style="stroke:#e21e26;stroke-width:.71px;fill:none" d="M2665.32 1247h226.23"/><path d="M1632.18 304.36c-9.27 0-62.51-18.98-62.51-68.85v-67.22s.02-.01.04-.01c.24 0 1.56.1 3.72.1 10.52 0 37.3-2.24 58.74-23.05 21.47 20.82 48.25 23.05 58.76 23.05 2.36 0 3.72-.11 3.74-.11l.02 67.25c0 49.87-53.24 68.85-62.51 68.85Z" style="fill:#080303;opacity:.2;isolation:isolate"/><path class="cls-19" d="M1621.51 294.63c-9.28 0-62.51-18.98-62.51-68.83v-67.23h.04c.22 0 1.56.1 3.72.1 10.51 0 37.3-2.25 58.73-23.05 21.48 20.8 48.25 23.05 58.78 23.05 2.35 0 3.71-.12 3.74-.12l.02 67.26c0 49.85-53.24 68.83-62.51 68.83Z"/><path class="cls-19" d="M1621.51 247.72c18.01 0 32.61-14.59 32.61-32.61s-14.61-32.61-32.61-32.61-32.61 14.61-32.61 32.61 14.59 32.61 32.61 32.61Z"/><path class="cls-6" d="m1610.83 213.92 8.7 8.71 12.66-15.03"/><path class="cls-26" d="M1121.51 726.06h84.76c3.48 0 6.93.69 10.16 2.02a26.494 26.494 0 0 1 14.36 14.37 26.61 26.61 0 0 1 2.02 10.16v34.83c0 3.48-.69 6.94-2.02 10.16a26.494 26.494 0 0 1-5.75 8.61 26.208 26.208 0 0 1-8.61 5.76 26.676 26.676 0 0 1-10.16 2.01h-84.76c-3.48 0-6.93-.68-10.16-2.01a26.364 26.364 0 0 1-8.61-5.76 26.494 26.494 0 0 1-5.75-8.61 26.648 26.648 0 0 1-2.02-10.16v-34.83c0-3.49.69-6.94 2.02-10.16a26.494 26.494 0 0 1 14.36-14.37c3.23-1.33 6.68-2.02 10.16-2.02Z"/><path class="cls-3" d="m1143.77 789.04-21.86-18.76 21.86-18.67M1183.89 751.61l21.86 18.67-21.86 18.76M1170.12 750.41l-12.57 39.13"/><path class="cls-34" d="M1550.13 1030.76a6.9 6.9 0 0 1-5.24.27 6.873 6.873 0 0 1-3.9-3.51l-32.13-67.44a6.93 6.93 0 0 1-.29-5.27 6.945 6.945 0 0 1 3.51-3.92l108.79-51.84c1.64-.78 3.52-.88 5.24-.27 1.72.61 3.12 1.87 3.9 3.51l32.16 67.48c.78 1.64.88 3.52.27 5.24a6.873 6.873 0 0 1-3.51 3.9l-108.79 51.84Z"/><path class="cls-26" d="M1541.51 1026.45a6.85 6.85 0 0 1-5.24.27 6.873 6.873 0 0 1-3.9-3.51l-32.13-67.44a6.86 6.86 0 0 1-.28-5.26c.6-1.72 1.86-3.14 3.5-3.93l108.79-51.84c1.64-.78 3.54-.88 5.24-.27 1.72.61 3.12 1.87 3.9 3.51l32.16 67.48c.78 1.64.88 3.52.27 5.24a6.809 6.809 0 0 1-3.51 3.9l-108.79 51.84Z"/><path d="m1512.58 981.67-8.04-16.86 121.2-57.76 8.06 16.86-121.21 57.76Z"/><path d="M1550.83 1006.49c-1.68.8-3.61.89-5.36.26a7.031 7.031 0 0 1-3.98-3.61c-.41-.81-.65-1.72-.7-2.63-.06-.91.07-1.83.37-2.7.3-.88.78-1.68 1.4-2.37a6.79 6.79 0 0 1 2.22-1.64l15.62-7.44c1.68-.79 3.61-.89 5.36-.26a7.049 7.049 0 0 1 4.27 8.97 7.046 7.046 0 0 1-3.58 4l-15.62 7.44Z" style="fill:#767676"/><path class="cls-19" d="M1625.68 970.73c-1.9.91-4.03 1.22-6.11.92-2.08-.3-4.03-1.21-5.59-2.62a10.635 10.635 0 0 1-3.2-5.29c-.52-2.04-.41-4.19.28-6.17.7-1.99 1.98-3.72 3.67-4.97a10.56 10.56 0 0 1 5.81-2.09c2.1-.11 4.18.4 6 1.47 1.8 1.08 3.25 2.67 4.16 4.57 1.2 2.55 1.35 5.47.42 8.13-.95 2.66-2.91 4.83-5.45 6.05Z"/><path class="cls-19" d="M1613.27 976.65c-1.9.9-4.03 1.22-6.11.92-2.08-.3-4.02-1.22-5.59-2.62a10.547 10.547 0 0 1-3.19-5.29c-.52-2.04-.42-4.19.28-6.17.7-1.99 1.98-3.71 3.66-4.97a10.56 10.56 0 0 1 5.81-2.09c2.1-.12 4.19.4 6 1.47 1.81 1.08 3.25 2.67 4.16 4.57a10.64 10.64 0 0 1-5.03 14.18Z"/><path class="cls-12" d="M252.6 344.72c63.32 0 114.66-51.34 114.66-114.67S315.92 115.38 252.6 115.38s-114.67 51.34-114.67 114.67 51.34 114.67 114.67 114.67Z"/><path class="cls-18" d="M253.01 221.02c14.69 0 26.59-11.9 26.59-26.59s-11.9-26.59-26.59-26.59-26.59 11.91-26.59 26.59 11.91 26.59 26.59 26.59ZM252.6 298.05c19.77 0 38.6-8.61 51.44-23.61-1.67-29.75-23.9-53.36-51.09-53.36s-49.83 24.03-51.09 54.26a68.028 68.028 0 0 0 50.74 22.71Z"/><path class="cls-26" d="M2272.99 199.23h215.62c10.18.01 19.94 4.05 27.14 11.25 7.2 7.2 11.24 16.96 11.25 27.14v23.6a38.408 38.408 0 0 1-11.25 27.14 38.384 38.384 0 0 1-27.14 11.25h-215.62c-10.18 0-19.94-4.05-27.14-11.25a38.408 38.408 0 0 1-11.25-27.14v-23.6a38.426 38.426 0 0 1 11.25-27.14c7.2-7.2 16.96-11.24 27.14-11.25Z"/><path class="cls-3" d="M2288.33 268.95c10.83 0 19.61-8.78 19.61-19.62s-8.78-19.62-19.61-19.62-19.62 8.79-19.62 19.62 8.78 19.62 19.62 19.62ZM2302.21 263.22l5.97 5.97M2332.69 266.35h154.53"/><path class="cls-8" d="M886.11 834.97v28.25M886.11 943.38v28.25M954.43 903.3h-28.25M846.02 903.3h-28.25M837.84 855.03l19.89 19.89M914.52 931.72l19.89 19.89M934.41 855.03l-19.89 19.89M857.73 931.72l-19.89 19.89"/><path class="cls-3" d="M1294.08 837.77c39.5-34.8 112.7-81.8 174-41.9 0 0-60.3-78.8-29.6-115.6 40.1-48.2 158.1 82.8 140.4 105.3-18.2 23-58.9-79.9-37.6-137.1 16.8-45 97 22.5 109.9 62.4"/><path class="cls-34" d="M1667.33 780.48c31.67 0 57.34-25.68 57.34-57.35s-25.67-57.34-57.34-57.34-57.35 25.67-57.35 57.34 25.68 57.35 57.35 57.35Z"/><path d="M1667.33 762.95c31.67 0 57.34-25.67 57.34-57.34s-25.67-57.35-57.34-57.35-57.35 25.68-57.35 57.35 25.68 57.34 57.35 57.34Z" style="fill:#58595b"/><path class="cls-3" d="M1667.33 677.91v35.7M1667.33 727.46v5.84"/></g></svg>
